<?xml version="1.0" encoding="iso-8859-1"?>
<!-- Generator: Adobe Illustrator 19.0.0, SVG Export Plug-In . SVG Version: 6.00 Build 0)  -->
<svg xmlns="http://www.w3.org/2000/svg" xmlns:xlink="http://www.w3.org/1999/xlink" version="1.1" id="Capa_1" x="0px" y="0px" viewBox="0 0 400.8 400.8" style="enable-background:new 0 0 400.8 400.8;" xml:space="preserve" width="512px" height="512px">
<g>
	<g>
		<path d="M384.8,160h-23.2c-4-17.6-20-31.2-38.4-31.2c-18.4,0-35.2,13.6-38.4,31.2h-23.2c-4.8,0-8,3.2-8,8v75.2    c0,38.4,30.4,69.6,68.8,69.6v16.8c0,30.4-24.8,55.2-55.2,55.2c-30.4,0-55.2-24.8-55.2-55.2V16h44c4.8,0,8-3.2,8-8s-3.2-8-8-8H152    c-4.8,0-8,3.2-8,8s3.2,8,8,8h44v313.6c0,30.4-24.8,55.2-55.2,55.2c-30.4,0-55.2-24.8-55.2-55.2V312c34.4-4,61.6-33.6,61.6-69.6    V168c0-4.8-3.2-8-8-8H116c-4-17.6-20-31.2-38.4-31.2c-19.2,0-35.2,13.6-38.4,31.2H16c-4.8,0-8,3.2-8,8v75.2    C8,278.4,35.2,308,69.6,312v17.6c0,39.2,32,71.2,71.2,71.2c27.2,0,51.2-15.2,63.2-38.4c12,22.4,35.2,38.4,63.2,38.4    c39.2,0,71.2-32,71.2-71.2v-18.4c31.2-7.2,54.4-34.4,54.4-68V168C392.8,163.2,389.6,160,384.8,160z M77.6,144    c10.4,0,19.2,6.4,22.4,15.2H56C59.2,150.4,67.2,144,77.6,144z M24,176h22.4h63.2H132v16H24V176z M24,242.4V208h107.2v34.4    c0,29.6-24,53.6-53.6,53.6C48,296,24,272,24,242.4z M322.4,144c10.4,0,19.2,6.4,22.4,15.2h-44C303.2,150.4,312,144,322.4,144z     M376,242.4c0,29.6-24,53.6-53.6,53.6c-29.6,0.8-53.6-24-53.6-53.6V208H376V242.4z M376,192H268.8v-16h21.6h63.2H376V192z" fill="#f0f0f0"/>
	</g>
</g>
<g>
</g>
<g>
</g>
<g>
</g>
<g>
</g>
<g>
</g>
<g>
</g>
<g>
</g>
<g>
</g>
<g>
</g>
<g>
</g>
<g>
</g>
<g>
</g>
<g>
</g>
<g>
</g>
<g>
</g>
</svg>
